
<svg width="200" height="50" viewBox="0 0 200 50" fill="none" xmlns="http://www.w3.org/2000/svg">
  <path d="M20 10H45C45 10 42 25 32.5 35C23 45 10 45 10 45C10 45 15 30 20 10Z" fill="#558242"/>
  <path d="M24 15H34C34 15 32.5 25 28 30C23.5 35 19 35 19 35C19 35 21 25 24 15Z" fill="#6ca253"/>
  <path d="M50 15H65V20H58V40H57V20H50V15Z" fill="#333333"/>
  <path d="M70 15H85V20H78V25H84V30H78V35H85V40H70V15Z" fill="#333333"/>
  <path d="M90 15H105V20H98V25H104V30H98V35H105V40H90V15Z" fill="#333333"/>
  <path d="M110 15H125V20H118V25H124V30H118V35H125V40H110V15Z" fill="#333333"/>
  <path d="M130 15H138C143 15 145 18 145 22.5C145 27 143 30 138 30H137V40H130V15ZM137 25H138C139 25 139 24 139 22.5C139 21 139 20 138 20H137V25Z" fill="#333333"/>
  <path d="M150 15H165V20H158V25H164V30H158V35H165V40H150V15Z" fill="#333333"/>
  <path d="M170 15H183C188 15 190 18 190 22.5C190 25 189 27 187 28L190 40H183L181 30H177V40H170V15ZM177 25H183C184 25 184 24 184 22.5C184 21 184 20 183 20H177V25Z" fill="#333333"/>
</svg>
