
<svg width="500" height="400" viewBox="0 0 500 400" fill="none" xmlns="http://www.w3.org/2000/svg">
  <!-- Sky background -->
  <rect width="500" height="400" fill="#f5f9ff"/>
  
  <!-- Clouds -->
  <ellipse cx="100" cy="80" rx="40" ry="20" fill="white"/>
  <ellipse cx="150" cy="70" rx="50" ry="25" fill="white"/>
  <ellipse cx="400" cy="100" rx="60" ry="30" fill="white"/>
  <ellipse cx="450" cy="90" rx="40" ry="20" fill="white"/>
  
  <!-- Fields -->
  <rect y="200" width="500" height="200" fill="#8abb74"/>
  <path d="M0 200 L500 200 L500 220 L0 220 Z" fill="#6ca253"/>
  
  <!-- Field patterns -->
  <rect x="50" y="250" width="100" height="100" fill="#6ca253"/>
  <rect x="200" y="300" width="150" height="50" fill="#6ca253"/>
  <rect x="350" y="250" width="100" height="100" fill="#6ca253"/>
  
  <!-- Drone body -->
  <rect x="200" y="150" width="100" height="20" rx="5" fill="#333333"/>
  <circle cx="250" cy="160" r="10" fill="#555555"/>
  <circle cx="250" cy="160" r="5" fill="#777777"/>
  
  <!-- Drone arms -->
  <rect x="180" y="150" width="40" height="8" rx="2" fill="#444444" transform="rotate(-45 180 150)"/>
  <rect x="280" y="150" width="40" height="8" rx="2" fill="#444444" transform="rotate(45 280 150)"/>
  <rect x="180" y="170" width="40" height="8" rx="2" fill="#444444" transform="rotate(45 180 170)"/>
  <rect x="280" y="170" width="40" height="8" rx="2" fill="#444444" transform="rotate(-45 280 170)"/>
  
  <!-- Propellers -->
  <ellipse cx="170" cy="140" rx="20" ry="3" fill="#555555"/>
  <ellipse cx="330" cy="140" rx="20" ry="3" fill="#555555"/>
  <ellipse cx="170" cy="180" rx="20" ry="3" fill="#555555"/>
  <ellipse cx="330" cy="180" rx="20" ry="3" fill="#555555"/>
  
  <!-- Camera -->
  <circle cx="250" cy="175" r="8" fill="#222222"/>
  <circle cx="250" cy="175" r="5" fill="#111111"/>
  <circle cx="247" cy="172" r="2" fill="white"/>
  
  <!-- Shadow -->
  <ellipse cx="250" cy="330" rx="80" ry="10" fill="rgba(0,0,0,0.1)"/>
  
  <!-- Scan lines -->
  <path d="M240 175 L240 330" stroke="#558242" stroke-width="1" stroke-dasharray="5 5"/>
  <path d="M260 175 L260 330" stroke="#558242" stroke-width="1" stroke-dasharray="5 5"/>
  <path d="M230 330 L270 330" stroke="#558242" stroke-width="2"/>
</svg>
